<?xml version="1.0" encoding="utf-8"?>
<!-- Generator: Adobe Illustrator 24.0.2, SVG Export Plug-In . SVG Version: 6.00 Build 0)  -->
<svg version="1.1" id="emoji" xmlns="http://www.w3.org/2000/svg" xmlns:xlink="http://www.w3.org/1999/xlink" x="0px" y="0px" width="84px" height="52px" viewBox="0 0 84 52" style="enable-background:new 0 0 84 52;" xml:space="preserve">
<style type="text/css">
	.st0{fill:none;stroke:#e0ffe0;stroke-width:2;stroke-linecap:round;stroke-linejoin:round;stroke-miterlimit:10;}
</style>
<g id="logo">
	<path class="st0" d="M22.5,14.5c-1,2.5-2.1,3.7-3,4.6c-0.6,0.6-1.6,0.7-2.4,0.2l-1.3-1L12,24c-0.5,0.8-1.4,1.2-2.3,1.2l0,0
		c0,0-3,3.7-4.1,7.7c-0.3,1.1-1,2.1-1.9,2.8L3.2,36c0,0-2.7,2.2,0.5,3.2c0,0,10.9,3.4,16.9-1.4"/>
	<path class="st0" d="M30.5,12.7c-1.4,0.9-2.8,1.5-4,2"/>
	<path class="st0" d="M18.4,43l-0.3,0.5c-0.7,1.5,0.4,3.2,2,3.2H22c0.8,0,1.6-0.5,2-1.2l3.2-6c0,0,4,1.6,5.4,5.7
		c0,0.1,0.1,0.2,0.2,0.3"/>
	<path class="st0" d="M16.5,26.5c0,0,2.4-3.8,4.6-0.4c1.4,2.3-0.3,5.7-1.7,7.7c-0.6,0.9-1.8,1.3-2.9,0.9l0,0"/>
	<g id="line">
		<path class="st0" d="M43,27.4c-2.4,5.1-13.2,1-13.2,1c-0.6-0.3-1-0.8-1.1-1.5l-0.4-2c-0.1-0.5,0-1,0.3-1.4l1.9-3.2
			c0.9-1.5,2.3-2.8,3.9-3.6l3.7-1.8c0,0,3.5-10.9,9.3-11.8c0,0,4.6,4.7-3.5,15c0,0,2,1.4,3.6,4c0,0,15.3-8.9,24.9,10.4
			c8.9,17.8-8.3,16.7-14.2,15.9c-1.5-0.2-2.8-1.1-3.5-2.5c-0.7-1.4-0.5-3.1,3.3-3.6"/>
		<path class="st0" d="M34.1,33c0.3,2.9,2.1,6.2,6.7,6.8c0,0,1.5,1.8,0,3.3c0,0-1.4,1.2-2.4,2.3c-1.3,1.3-0.4,3.4,1.4,3.4h3.9
			c0.7,0,1.3-0.4,1.7-0.9l3.7-5.9l1.3-4"/>
		<path class="st0" d="M78.1,39.8c0,0,4.9-0.1,3.4,3.9c-1.5,4-5,3.6-5,3.6"/>
		<path class="st0" d="M35.5,12.1c-0.2-3.1,0.8-7.2,4-8.9c0,0,1.9-0.2,3.2,3.2"/>
	</g>
	<g>
		<circle cx="11.3" cy="30.8" r="1"/>
	</g>
	<circle cx="35.3" cy="20.8" r="1"/>
</g>
</svg>
